<mxfile host="app.diagrams.net" modified="2023-10-08T14:33:33.659Z" agent="Mozilla/5.0 (Windows NT 10.0; Win64; x64) AppleWebKit/537.36 (KHTML, like Gecko) Chrome/117.0.0.0 Safari/537.36 Edg/117.0.2045.47" etag="_1ILktgFiefMSAXLGiPL" version="22.0.0" type="github">
  <diagram name="Trang-1" id="f7UukN02Y4rfjU-1dkGm">
    <mxGraphModel dx="1579" dy="759" grid="1" gridSize="10" guides="1" tooltips="1" connect="1" arrows="1" fold="1" page="1" pageScale="1" pageWidth="827" pageHeight="1169" math="0" shadow="0">
      <root>
        <mxCell id="0" />
        <mxCell id="1" parent="0" />
        <mxCell id="6FcjzkSdmnF6HZqwFhS1-1" value="U.S.STATE" style="whiteSpace=wrap;html=1;align=center;" vertex="1" parent="1">
          <mxGeometry x="260" y="170" width="100" height="40" as="geometry" />
        </mxCell>
        <mxCell id="6FcjzkSdmnF6HZqwFhS1-2" value="CONGRESS_PERSON" style="whiteSpace=wrap;html=1;align=center;" vertex="1" parent="1">
          <mxGeometry x="560" y="170" width="130" height="50" as="geometry" />
        </mxCell>
        <mxCell id="6FcjzkSdmnF6HZqwFhS1-3" value="Name" style="ellipse;whiteSpace=wrap;html=1;align=center;" vertex="1" parent="1">
          <mxGeometry x="230" y="80" width="100" height="40" as="geometry" />
        </mxCell>
        <mxCell id="6FcjzkSdmnF6HZqwFhS1-4" value="Domain" style="ellipse;whiteSpace=wrap;html=1;align=center;" vertex="1" parent="1">
          <mxGeometry x="364" y="80" width="100" height="40" as="geometry" />
        </mxCell>
        <mxCell id="6FcjzkSdmnF6HZqwFhS1-5" value="" style="endArrow=none;html=1;rounded=0;exitX=0.5;exitY=1;exitDx=0;exitDy=0;entryX=0.25;entryY=0;entryDx=0;entryDy=0;" edge="1" parent="1" source="6FcjzkSdmnF6HZqwFhS1-3" target="6FcjzkSdmnF6HZqwFhS1-1">
          <mxGeometry relative="1" as="geometry">
            <mxPoint x="410" y="390" as="sourcePoint" />
            <mxPoint x="570" y="390" as="targetPoint" />
          </mxGeometry>
        </mxCell>
        <mxCell id="6FcjzkSdmnF6HZqwFhS1-6" value="" style="endArrow=none;html=1;rounded=0;exitX=0.32;exitY=1;exitDx=0;exitDy=0;exitPerimeter=0;entryX=0.75;entryY=0;entryDx=0;entryDy=0;" edge="1" parent="1" source="6FcjzkSdmnF6HZqwFhS1-4" target="6FcjzkSdmnF6HZqwFhS1-1">
          <mxGeometry relative="1" as="geometry">
            <mxPoint x="410" y="390" as="sourcePoint" />
            <mxPoint x="570" y="390" as="targetPoint" />
          </mxGeometry>
        </mxCell>
        <mxCell id="6FcjzkSdmnF6HZqwFhS1-7" value="Name" style="ellipse;whiteSpace=wrap;html=1;align=center;" vertex="1" parent="1">
          <mxGeometry x="510" y="90" width="100" height="40" as="geometry" />
        </mxCell>
        <mxCell id="6FcjzkSdmnF6HZqwFhS1-8" value="District represented" style="ellipse;whiteSpace=wrap;html=1;align=center;" vertex="1" parent="1">
          <mxGeometry x="650" y="90" width="100" height="40" as="geometry" />
        </mxCell>
        <mxCell id="6FcjzkSdmnF6HZqwFhS1-9" value="" style="endArrow=none;html=1;rounded=0;exitX=0.5;exitY=1;exitDx=0;exitDy=0;entryX=0.208;entryY=0.02;entryDx=0;entryDy=0;entryPerimeter=0;" edge="1" parent="1" source="6FcjzkSdmnF6HZqwFhS1-7" target="6FcjzkSdmnF6HZqwFhS1-2">
          <mxGeometry relative="1" as="geometry">
            <mxPoint x="406" y="130" as="sourcePoint" />
            <mxPoint x="345" y="180" as="targetPoint" />
          </mxGeometry>
        </mxCell>
        <mxCell id="6FcjzkSdmnF6HZqwFhS1-10" value="" style="endArrow=none;html=1;rounded=0;exitX=0.31;exitY=1.05;exitDx=0;exitDy=0;entryX=0.75;entryY=0;entryDx=0;entryDy=0;exitPerimeter=0;" edge="1" parent="1" source="6FcjzkSdmnF6HZqwFhS1-8" target="6FcjzkSdmnF6HZqwFhS1-2">
          <mxGeometry relative="1" as="geometry">
            <mxPoint x="570" y="140" as="sourcePoint" />
            <mxPoint x="577" y="221" as="targetPoint" />
          </mxGeometry>
        </mxCell>
        <mxCell id="6FcjzkSdmnF6HZqwFhS1-11" value="Start_date" style="ellipse;whiteSpace=wrap;html=1;align=center;" vertex="1" parent="1">
          <mxGeometry x="760" y="130" width="100" height="40" as="geometry" />
        </mxCell>
        <mxCell id="6FcjzkSdmnF6HZqwFhS1-12" value="" style="endArrow=none;html=1;rounded=0;exitX=0.06;exitY=0.675;exitDx=0;exitDy=0;entryX=1;entryY=0.25;entryDx=0;entryDy=0;exitPerimeter=0;" edge="1" parent="1" source="6FcjzkSdmnF6HZqwFhS1-11" target="6FcjzkSdmnF6HZqwFhS1-2">
          <mxGeometry relative="1" as="geometry">
            <mxPoint x="691" y="142" as="sourcePoint" />
            <mxPoint x="658" y="200" as="targetPoint" />
          </mxGeometry>
        </mxCell>
        <mxCell id="6FcjzkSdmnF6HZqwFhS1-13" value="Political Party" style="ellipse;whiteSpace=wrap;html=1;align=center;" vertex="1" parent="1">
          <mxGeometry x="760" y="200" width="100" height="40" as="geometry" />
        </mxCell>
        <mxCell id="6FcjzkSdmnF6HZqwFhS1-14" value="" style="endArrow=none;html=1;rounded=0;exitX=0;exitY=0.5;exitDx=0;exitDy=0;" edge="1" parent="1" source="6FcjzkSdmnF6HZqwFhS1-13" target="6FcjzkSdmnF6HZqwFhS1-2">
          <mxGeometry relative="1" as="geometry">
            <mxPoint x="776" y="167" as="sourcePoint" />
            <mxPoint x="690" y="213" as="targetPoint" />
          </mxGeometry>
        </mxCell>
        <mxCell id="6FcjzkSdmnF6HZqwFhS1-15" value="BILL" style="whiteSpace=wrap;html=1;align=center;" vertex="1" parent="1">
          <mxGeometry x="400" y="460" width="100" height="40" as="geometry" />
        </mxCell>
        <mxCell id="6FcjzkSdmnF6HZqwFhS1-16" value="Bill_name" style="ellipse;whiteSpace=wrap;html=1;align=center;" vertex="1" parent="1">
          <mxGeometry x="220" y="540" width="100" height="40" as="geometry" />
        </mxCell>
        <mxCell id="6FcjzkSdmnF6HZqwFhS1-17" value="Date_of_vote" style="ellipse;whiteSpace=wrap;html=1;align=center;" vertex="1" parent="1">
          <mxGeometry x="340" y="565" width="100" height="40" as="geometry" />
        </mxCell>
        <mxCell id="6FcjzkSdmnF6HZqwFhS1-18" value="Passed_or_failed" style="ellipse;whiteSpace=wrap;html=1;align=center;" vertex="1" parent="1">
          <mxGeometry x="250" y="430" width="100" height="40" as="geometry" />
        </mxCell>
        <mxCell id="6FcjzkSdmnF6HZqwFhS1-19" value="Sponsor" style="ellipse;whiteSpace=wrap;html=1;align=center;" vertex="1" parent="1">
          <mxGeometry x="480" y="565" width="100" height="40" as="geometry" />
        </mxCell>
        <mxCell id="6FcjzkSdmnF6HZqwFhS1-23" value="" style="endArrow=none;html=1;rounded=0;exitX=0.95;exitY=0.775;exitDx=0;exitDy=0;exitPerimeter=0;entryX=0;entryY=0.25;entryDx=0;entryDy=0;" edge="1" parent="1" source="6FcjzkSdmnF6HZqwFhS1-18" target="6FcjzkSdmnF6HZqwFhS1-15">
          <mxGeometry relative="1" as="geometry">
            <mxPoint x="480" y="390" as="sourcePoint" />
            <mxPoint x="640" y="390" as="targetPoint" />
          </mxGeometry>
        </mxCell>
        <mxCell id="6FcjzkSdmnF6HZqwFhS1-24" value="" style="endArrow=none;html=1;rounded=0;entryX=0;entryY=0.75;entryDx=0;entryDy=0;" edge="1" parent="1" source="6FcjzkSdmnF6HZqwFhS1-16" target="6FcjzkSdmnF6HZqwFhS1-15">
          <mxGeometry relative="1" as="geometry">
            <mxPoint x="355" y="471" as="sourcePoint" />
            <mxPoint x="420" y="470" as="targetPoint" />
          </mxGeometry>
        </mxCell>
        <mxCell id="6FcjzkSdmnF6HZqwFhS1-25" value="" style="endArrow=none;html=1;rounded=0;entryX=0.25;entryY=1;entryDx=0;entryDy=0;exitX=0.43;exitY=0.075;exitDx=0;exitDy=0;exitPerimeter=0;" edge="1" parent="1" source="6FcjzkSdmnF6HZqwFhS1-17" target="6FcjzkSdmnF6HZqwFhS1-15">
          <mxGeometry relative="1" as="geometry">
            <mxPoint x="309" y="554" as="sourcePoint" />
            <mxPoint x="420" y="490" as="targetPoint" />
          </mxGeometry>
        </mxCell>
        <mxCell id="6FcjzkSdmnF6HZqwFhS1-26" value="" style="endArrow=none;html=1;rounded=0;entryX=0.75;entryY=1;entryDx=0;entryDy=0;exitX=0.26;exitY=0.1;exitDx=0;exitDy=0;exitPerimeter=0;" edge="1" parent="1" source="6FcjzkSdmnF6HZqwFhS1-19" target="6FcjzkSdmnF6HZqwFhS1-15">
          <mxGeometry relative="1" as="geometry">
            <mxPoint x="319" y="564" as="sourcePoint" />
            <mxPoint x="430" y="500" as="targetPoint" />
          </mxGeometry>
        </mxCell>
        <mxCell id="6FcjzkSdmnF6HZqwFhS1-27" value="Has" style="shape=rhombus;perimeter=rhombusPerimeter;whiteSpace=wrap;html=1;align=center;" vertex="1" parent="1">
          <mxGeometry x="400" y="165" width="120" height="60" as="geometry" />
        </mxCell>
        <mxCell id="6FcjzkSdmnF6HZqwFhS1-28" value="" style="endArrow=none;html=1;rounded=0;exitX=1;exitY=0.5;exitDx=0;exitDy=0;entryX=0;entryY=0.5;entryDx=0;entryDy=0;" edge="1" parent="1" source="6FcjzkSdmnF6HZqwFhS1-1" target="6FcjzkSdmnF6HZqwFhS1-27">
          <mxGeometry relative="1" as="geometry">
            <mxPoint x="480" y="390" as="sourcePoint" />
            <mxPoint x="640" y="390" as="targetPoint" />
          </mxGeometry>
        </mxCell>
        <mxCell id="6FcjzkSdmnF6HZqwFhS1-30" value="" style="endArrow=none;html=1;rounded=0;exitX=1;exitY=0.5;exitDx=0;exitDy=0;entryX=0.023;entryY=0.64;entryDx=0;entryDy=0;entryPerimeter=0;" edge="1" parent="1" source="6FcjzkSdmnF6HZqwFhS1-27" target="6FcjzkSdmnF6HZqwFhS1-2">
          <mxGeometry relative="1" as="geometry">
            <mxPoint x="370" y="200" as="sourcePoint" />
            <mxPoint x="410" y="210" as="targetPoint" />
          </mxGeometry>
        </mxCell>
        <mxCell id="6FcjzkSdmnF6HZqwFhS1-32" value="Vote" style="shape=rhombus;perimeter=rhombusPerimeter;whiteSpace=wrap;html=1;align=center;" vertex="1" parent="1">
          <mxGeometry x="520" y="310" width="120" height="60" as="geometry" />
        </mxCell>
        <mxCell id="6FcjzkSdmnF6HZqwFhS1-33" value="" style="endArrow=none;html=1;rounded=0;exitX=0.5;exitY=1;exitDx=0;exitDy=0;entryX=0.5;entryY=0;entryDx=0;entryDy=0;" edge="1" parent="1" source="6FcjzkSdmnF6HZqwFhS1-2" target="6FcjzkSdmnF6HZqwFhS1-32">
          <mxGeometry relative="1" as="geometry">
            <mxPoint x="530" y="205" as="sourcePoint" />
            <mxPoint x="573" y="212" as="targetPoint" />
          </mxGeometry>
        </mxCell>
        <mxCell id="6FcjzkSdmnF6HZqwFhS1-34" value="" style="endArrow=none;html=1;rounded=0;exitX=0.5;exitY=1;exitDx=0;exitDy=0;entryX=0.75;entryY=0;entryDx=0;entryDy=0;" edge="1" parent="1" source="6FcjzkSdmnF6HZqwFhS1-32" target="6FcjzkSdmnF6HZqwFhS1-15">
          <mxGeometry relative="1" as="geometry">
            <mxPoint x="635" y="230" as="sourcePoint" />
            <mxPoint x="640" y="340" as="targetPoint" />
          </mxGeometry>
        </mxCell>
        <mxCell id="6FcjzkSdmnF6HZqwFhS1-35" value="(1,n)" style="text;html=1;align=center;verticalAlign=middle;resizable=0;points=[];autosize=1;strokeColor=none;fillColor=none;" vertex="1" parent="1">
          <mxGeometry x="355" y="158" width="50" height="30" as="geometry" />
        </mxCell>
        <mxCell id="6FcjzkSdmnF6HZqwFhS1-36" value="(1,1)" style="text;html=1;align=center;verticalAlign=middle;resizable=0;points=[];autosize=1;strokeColor=none;fillColor=none;" vertex="1" parent="1">
          <mxGeometry x="510" y="170" width="50" height="30" as="geometry" />
        </mxCell>
        <mxCell id="6FcjzkSdmnF6HZqwFhS1-37" value="(0,n)" style="text;html=1;align=center;verticalAlign=middle;resizable=0;points=[];autosize=1;strokeColor=none;fillColor=none;" vertex="1" parent="1">
          <mxGeometry x="610" y="260" width="50" height="30" as="geometry" />
        </mxCell>
        <mxCell id="6FcjzkSdmnF6HZqwFhS1-38" value="(0,n)" style="text;html=1;align=center;verticalAlign=middle;resizable=0;points=[];autosize=1;strokeColor=none;fillColor=none;" vertex="1" parent="1">
          <mxGeometry x="540" y="400" width="50" height="30" as="geometry" />
        </mxCell>
        <mxCell id="6FcjzkSdmnF6HZqwFhS1-39" value="Vote_info" style="ellipse;whiteSpace=wrap;html=1;align=center;" vertex="1" parent="1">
          <mxGeometry x="660" y="395" width="100" height="40" as="geometry" />
        </mxCell>
        <mxCell id="6FcjzkSdmnF6HZqwFhS1-40" value="" style="endArrow=none;html=1;rounded=0;exitX=0.833;exitY=0.7;exitDx=0;exitDy=0;entryX=0.05;entryY=0.15;entryDx=0;entryDy=0;entryPerimeter=0;exitPerimeter=0;" edge="1" parent="1" source="6FcjzkSdmnF6HZqwFhS1-32" target="6FcjzkSdmnF6HZqwFhS1-39">
          <mxGeometry relative="1" as="geometry">
            <mxPoint x="635" y="230" as="sourcePoint" />
            <mxPoint x="590" y="320" as="targetPoint" />
          </mxGeometry>
        </mxCell>
        <mxCell id="6FcjzkSdmnF6HZqwFhS1-42" value="state_id" style="ellipse;whiteSpace=wrap;html=1;align=center;fontStyle=4;" vertex="1" parent="1">
          <mxGeometry x="280" y="250" width="100" height="40" as="geometry" />
        </mxCell>
        <mxCell id="6FcjzkSdmnF6HZqwFhS1-43" value="" style="endArrow=none;html=1;rounded=0;exitX=0.66;exitY=1.025;exitDx=0;exitDy=0;exitPerimeter=0;entryX=0.5;entryY=0;entryDx=0;entryDy=0;" edge="1" parent="1" source="6FcjzkSdmnF6HZqwFhS1-1" target="6FcjzkSdmnF6HZqwFhS1-42">
          <mxGeometry relative="1" as="geometry">
            <mxPoint x="406" y="130" as="sourcePoint" />
            <mxPoint x="345" y="180" as="targetPoint" />
          </mxGeometry>
        </mxCell>
        <mxCell id="6FcjzkSdmnF6HZqwFhS1-45" value="CP_id" style="ellipse;whiteSpace=wrap;html=1;align=center;fontStyle=4;" vertex="1" parent="1">
          <mxGeometry x="727" y="260" width="100" height="40" as="geometry" />
        </mxCell>
        <mxCell id="6FcjzkSdmnF6HZqwFhS1-46" value="" style="endArrow=none;html=1;rounded=0;exitX=0.846;exitY=1;exitDx=0;exitDy=0;exitPerimeter=0;entryX=0.03;entryY=0.7;entryDx=0;entryDy=0;entryPerimeter=0;" edge="1" parent="1" source="6FcjzkSdmnF6HZqwFhS1-2" target="6FcjzkSdmnF6HZqwFhS1-45">
          <mxGeometry relative="1" as="geometry">
            <mxPoint x="336" y="221" as="sourcePoint" />
            <mxPoint x="340" y="260" as="targetPoint" />
          </mxGeometry>
        </mxCell>
        <mxCell id="6FcjzkSdmnF6HZqwFhS1-47" value="&lt;u&gt;BILL_id&lt;/u&gt;" style="ellipse;whiteSpace=wrap;html=1;align=center;" vertex="1" parent="1">
          <mxGeometry x="580" y="500" width="100" height="40" as="geometry" />
        </mxCell>
        <mxCell id="6FcjzkSdmnF6HZqwFhS1-48" value="" style="endArrow=none;html=1;rounded=0;entryX=1;entryY=0.75;entryDx=0;entryDy=0;exitX=0;exitY=0.5;exitDx=0;exitDy=0;" edge="1" parent="1" source="6FcjzkSdmnF6HZqwFhS1-47" target="6FcjzkSdmnF6HZqwFhS1-15">
          <mxGeometry relative="1" as="geometry">
            <mxPoint x="516" y="579" as="sourcePoint" />
            <mxPoint x="485" y="510" as="targetPoint" />
          </mxGeometry>
        </mxCell>
      </root>
    </mxGraphModel>
  </diagram>
</mxfile>
